<svg xmlns="http://www.w3.org/2000/svg" width="1000" height="300" viewBox="0 0 1000 300" clip-rule="evenodd" fill-rule="evenodd" stroke-linejoin="round" stroke-miterlimit="2"><defs><linearGradient id="Gradient-0" x1="-0.5" y1="140" x2="120.5" y2="140" gradientUnits="userSpaceOnUse"><stop offset="0" stop-color="#fff" stop-opacity="0"/><stop offset=".5" stop-color="#fff"/><stop offset="1" stop-color="#fff" stop-opacity="0"/></linearGradient><clipPath id="ClipPath-1"><path d="M98.4 53.8l1-0.3l-0.4-0.5c-1.6-2.5-2.1-5.1-1.9-7.6l.2-2.1l1.9-1.1c8.7-4.8 24.2-18 37.5-29l2.5-2.2l8.5 7.2c0 0-4.1 5.7-4.1 5.7c27.7-4.2 49.4 2.2 67.5 15.3c6.2 4.5 25.8 11.7 25.8 11.7l3.8 1.4l-4.2 11.1c4.5 1.7 9.1 3.5 13.6 5.1l3.7 1.4l-3.8 10.5l-3.4-0.8c-7.9-1.7-15.7-3.6-23.6-4.9l1.5 .8l-2.4 4.1c10.3 1.9 21.6 3.1 31.4 3.5c12.9 .6 23.6 7.2 31.7 15c11.8 11.4 18.1 25.2 18.1 25.2l-6.3 4.6c-7.5-6.8-14.8-13-22-17c-2.5-1.4-5-2.5-7.4-3.3l21.3 16.3l-3.9 6.8c7.3 3.1 14.4 6.3 21.5 9.5l2.4 1.1v10.6l-4.5-0.6c-9.5-1.1-18.9-2-28.4-2.7l24.5 22.5l-15-3.6c-8.6-2.1-17.2-4.1-25.7-6c21.1 6.5 35.4 21.7 43.5 44.6l-6.8 4c-8-9.4-16.7-16.1-26.3-19.6c6 10.8 11.8 21.9 17 33.6l.2 .6l.1 .7c.5 6.4 .9 12.8-1.2 19.5l-3 9.1l-4.4-8.5c-15.6-29.8-43.5-58.7-75-87.4l3.9-6.8l32.7 9.9l-2.9-3.9l9.6 1.3c.3 .1 .6 .1 .8 .2c-21.3-4.9-42.5-9.4-63.5-13.6l-3.2-0.7v-5.4l-23.3-11.3c4.2 4 7.9 8.1 9.8 12c2.6 5 4.7 9.5 6.3 13.5l5.2-4.9c48.7 31.1 80.2 63.9 86.7 98.6l2.2 11.5l-32.3-28.6c2.3 13.7 4.2 27.5 4.3 41.2l-7.6 1.8c-6-12.3-13.6-23.3-22.7-33.2c.1 9.3 .1 18.7-0.2 28.1l-7.9 .9c-0.5-1.7-1-3.4-1.6-5.1v3.2l-4.5-0.5c-6.5-0.8-15.7-5.2-26.2-11.4l6.6 27.9l-6.9 3.6c-15.8-17.6-32.7-36.1-46.9-44.5c.9 2.4 2.1 4.8 3.6 7.4c4.9 8.5 13.1 17.9 23.1 27.8l-4.2 6.6c-27.9-10-45.7-27.1-56-47c-11.1-21.5-18.1-41.4-6.6-69.8l1.4-3.3c-5.8 2.3-11.3 4.8-16.5 7.5c-2.8 1.8-4.7 3.8-5.3 6.2c-0.6 2.6 .2 5.4 2.1 8.7l5.4 9.4l-10.2-3.6c-27.3-9.8-38.1-30.8-35.7-60.7l.4-4l4 .4c8.8 .8 17.7 1.6 27 1.7c-2.5-7.2-5.3-14.4-8.4-21.6v-0.3c-0.8-2.2-1.9-3.8-3.3-4.7c-1.6-1.1-3.5-1.2-5.7-0.9c-3 .4-6.3 1.7-9.9 3.5l-5.8 3c0 0 0-39.4 0-39.4c-0.1-5.5 1.4-9.2 3.8-11.5c3.4-3.4 9.3-4.3 17.2-2.2c0 0 16.7 4.8 16.7 4.8c9.3 1.2 18-0.5 26.2-4.5l5 6c-1.3 1.7-2.7 3.3-4 4.7c4.1-1.2 8.2-2.5 12.2-3.9h-0.4Zm294.5 118.3c1.5-1.1 2.2-2.7 2.2-4.7c0-2.3-0.7-4.2-2.3-5.4c-2.6-2-7.3-3.9-14.1-6.1c-7.8-2.6-14-5.1-18.6-7.5c-13.8-7.5-20.4-17.8-20.4-30.4c0-6.8 1.9-12.8 5.7-18.1c3.7-5.1 9-9.2 15.9-12.1c6.5-2.7 13.9-4.1 22-4.1c8.3 0 15.6 1.5 22.1 4.5c6.8 3.2 12 7.6 15.7 13.3c3.8 5.8 5.7 12.3 5.7 19.6v5h-31.6v-5c0-3.2-0.8-5.7-2.8-7.5c-2.2-1.9-5.4-2.7-9.5-2.7c-3.9 0-7 .7-9.2 2.3c-1.6 1.2-2.4 2.9-2.4 4.9c0 1.8 1.1 3.1 2.9 4.4c3.1 2.1 7.7 4 13.8 5.8c13.2 4 22.8 9.1 28.9 15c6.6 6.4 9.9 14.4 9.9 24c0 10.7-4.1 19.2-12.3 25.3c-7.6 5.7-17.8 8.7-30.7 8.7c-8.8 0-16.8-1.6-24-4.8c-7.6-3.4-13.3-8.1-17.3-13.9c-4-6-6.1-12.8-6.1-20.7v-5h31.7v5c0 3.3 .6 6 2.2 8c2.6 3.2 7.2 4.4 13.5 4.4c3.9 0 6.9-0.6 9.1-2.2Zm541.5-34.8h-7.7l-0.1 5l-5.6-0.8c-2.5-0.3-4.8-0.5-6.8-0.5c-5 0-8.6 1.1-10.4 4.2v54.7h-60.8l-7.3-21.6h-30.6l-7.2 21.6h-33.8l42.8-114.8h26.9l39.2 104.7v-77.7h29.3l.1 2.2c3.8-2.5 8.2-3.7 13.1-3.7c2.8 0 5.5 .4 8 1.2l.9 .3h10v-19.2h30.8v19.2h13.3v25.2h-13.3v33.9c0 .1 0 .3 0 .5c0 .9 0 1.7 .3 2.2c.3 0 1.6 .3 2.7 .3c1.9 0 3.7-0.1 5.2-0.4l5.9-1.1v25.5l-3.6 1c-4.5 1.4-9.2 2.1-14 2.1c-8.9 0-15.5-2.5-20-6.9c-4.5-4.5-7.1-11.1-7.3-20.1Zm-421.3 0h-10.5c.3 1.9 .5 3.8 .5 5.9v33.7c0 6.3 .7 11.2 2.5 14.4l.5 1.1v7.5h-29l-1.4-2.7c-0.1-0.2-0.2-0.4-0.3-0.5c-4.8 3.1-10.5 4.6-17 4.6c-9 0-16.4-2.6-22.2-7.8c-6.2-5.4-9.3-12.3-9.3-20.5c0-10 3.9-17.7 11.3-23c2.5-1.9 5.5-3.4 8.8-4.6h-18.3v-5c0-5.5 1.7-10.7 5.1-15.4c3.3-4.5 7.9-8.1 13.9-10.7c5.6-2.4 12-3.7 19.1-3.7c10.9 0 19.6 2.9 26 8.4c4.4 3.8 7.4 8.4 9 14.1v-21h11.3v-19.2h30.8v19.2h19v-19.2h30.8v19.2h13.3v22.9c.4-0.9 .8-1.8 1.2-2.6c3.4-7 8.3-12.3 14.7-16.1c6.4-3.8 13.7-5.7 22-5.7c12 0 21.7 3.8 29.2 11.1c7.5 7.2 11.8 17 12.7 29.5c0 0 .1 5.4 .1 5.5v.1c0 13.3-3.8 24-11.3 32.1c-7.6 8.2-17.7 12.4-30.5 12.4c-12.8 0-22.9-4.2-30.5-12.4c-2.8-2.9-5-6.2-6.8-10v19.3l-3.5 1c-4.6 1.4-9.3 2.1-14.1 2.1c-8.9 0-15.5-2.5-20-6.9c-4.5-4.5-7.1-11.1-7.3-20.1v-37h-19v33.8c0 .2 0 .4 0 .6c0 .9 0 1.7 .3 2.2c.3 0 1.7 .3 2.7 .3c1.9 0 3.7-0.1 5.2-0.4l5.9-1.1v25.5l-3.5 1c-4.6 1.4-9.3 2.1-14.1 2.1c-8.9 0-15.5-2.5-20-6.9c-4.5-4.5-7.1-11.1-7.3-20.1Zm206-25.2l.1 2.2c3.8-2.5 8.2-3.7 13.1-3.7c2.8 0 5.5 .4 7.9 1.2l3.6 1.1l-0.4 29.4l-5.6-0.8c-2.6-0.3-4.8-0.5-6.8-0.5c-5 0-8.6 1.1-10.5 4.2v54.7h-30.8v-87.8Zm101.3 20.3l-6.2 18.4h12.3Zm-226.7 4.9v32.6c.9 3 4.2 3 7.5 3.1c.3 0 .5 0 .8 0v-8.4c-2.5-5.1-2.5-11.1 0-18.9c0-4.4 0-8.7 0-8.7Zm43.5 4c-2.3 3.3-3.2 8.5-3.2 15.5c0 6.1 .9 10.8 3.2 14c1.8 2.6 4.5 3.8 7.9 3.8c3.3 0 5.9-1.2 7.8-3.8c2.3-3.2 3.2-8.4 3.2-15.5c0-6-0.9-10.7-3.3-14c-1.8-2.6-4.5-3.9-7.9-3.9c-3.3 0-5.8 1.3-7.7 3.9Zm-178.3 32.9c.9 .9 2.3 1.2 4 1.2c2.3 0 4.3-0.5 6.2-1.4c1.3-0.7 2.3-1.5 3.1-2.6v-6.9h-2.8c-6.9 0-11.1 1.4-11.6 6.2c0 0-0.1 .9-0.1 .9c.1 1.1 .4 2 1.2 2.6Zm278.1 22.1c-3.2-3-4.9-6.8-4.9-11.6c0-4.9 1.7-8.7 5-11.8c3.1-2.9 7-4.4 11.7-4.4c4.8 0 8.7 1.5 11.9 4.4c3.2 3.1 4.9 6.9 4.9 11.8c0 4.8-1.7 8.6-4.9 11.6c-3.1 2.9-7 4.4-11.9 4.4c-4.8 0-8.7-1.5-11.8-4.4Z" fill="red"/></clipPath></defs><style>
@keyframes a0_t { 0% { transform: translate(-85px,0px); animation-timing-function: cubic-bezier(.2,.5,.5,.9); } 100% { transform: translate(0px,0px); } }
@keyframes a0_o { 0% { opacity: 0; animation-timing-function: cubic-bezier(.2,.5,.5,.9); } 100% { opacity: 1; } }
@keyframes a1_t { 0% { transform: translate(-85px,0px); animation-timing-function: cubic-bezier(.2,.5,.5,.9); } 100% { transform: translate(0px,0px); } }
@keyframes a1_o { 0% { opacity: 0; animation-timing-function: cubic-bezier(.2,.5,.5,.9); } 100% { opacity: 1; } }
@keyframes a2_t { 0% { transform: translate(-85px,0px); animation-timing-function: cubic-bezier(.2,.5,.5,.9); } 100% { transform: translate(0px,0px); } }
@keyframes a2_o { 0% { opacity: 0; animation-timing-function: cubic-bezier(.2,.5,.5,.9); } 100% { opacity: 1; } }
@keyframes a3_t { 0% { transform: translate(-85px,0px); animation-timing-function: cubic-bezier(.2,.5,.5,.9); } 100% { transform: translate(0px,0px); } }
@keyframes a3_o { 0% { opacity: 0; animation-timing-function: cubic-bezier(.2,.5,.5,.9); } 100% { opacity: 1; } }
@keyframes a4_t { 0% { transform: translate(-85px,0px); animation-timing-function: cubic-bezier(.2,.5,.5,.9); } 100% { transform: translate(0px,0px); } }
@keyframes a4_o { 0% { opacity: 0; animation-timing-function: cubic-bezier(.2,.5,.5,.9); } 100% { opacity: 1; } }
@keyframes a5_t { 0% { transform: translate(-85px,0px); animation-timing-function: cubic-bezier(.2,.5,.5,.9); } 100% { transform: translate(0px,0px); } }
@keyframes a5_o { 0% { opacity: 0; animation-timing-function: cubic-bezier(.2,.5,.5,.9); } 100% { opacity: 1; } }
@keyframes a6_t { 0% { transform: translate(-85px,0px); animation-timing-function: cubic-bezier(.2,.5,.5,.9); } 100% { transform: translate(0px,0px); } }
@keyframes a6_o { 0% { opacity: 0; animation-timing-function: cubic-bezier(.2,.5,.5,.9); } 100% { opacity: 1; } }
@keyframes a7_t { 0% { transform: translate(-85px,0px); animation-timing-function: cubic-bezier(.2,.5,.5,.9); } 100% { transform: translate(0px,0px); } }
@keyframes a7_o { 0% { opacity: 0; animation-timing-function: cubic-bezier(.2,.5,.5,.9); } 100% { opacity: 1; } }
@keyframes a8_t { 0% { transform: translate(-85px,0px); animation-timing-function: cubic-bezier(.2,.5,.5,.9); } 100% { transform: translate(0px,0px); } }
@keyframes a8_o { 0% { opacity: 0; animation-timing-function: cubic-bezier(.2,.5,.5,.9); } 100% { opacity: 1; } }
@keyframes a9_t { 0% { transform: translate(-85px,0px); animation-timing-function: cubic-bezier(.2,.5,.5,.9); } 100% { transform: translate(0px,0px); } }
@keyframes a9_o { 0% { opacity: 0; animation-timing-function: cubic-bezier(.2,.5,.5,.9); } 100% { opacity: 1; } }
@keyframes a10_t { 0% { transform: translate(-100.8px,115.6px) rotate(15deg) translate(-59.5px,-200px); } 50% { transform: translate(-100.8px,115.6px) rotate(15deg) translate(-59.5px,-200px); } 80% { transform: translate(1109.5px,115.6px) rotate(15deg) translate(-59.5px,-200px); } 100% { transform: translate(1109.5px,115.6px) rotate(15deg) translate(-59.5px,-200px); } }
@keyframes a11_t { 0% { transform: translate(76.9px,106.7px) scale(0,0) translate(-102.6px,-123px); animation-timing-function: cubic-bezier(.2,.5,.5,.9); } 100% { transform: translate(76.9px,106.7px) scale(1,1) translate(-102.6px,-123px); } }
@keyframes a12_t { 0% { transform: translate(64.3px,119.9px) scale(0,0) translate(-90px,-136.1px); animation-timing-function: cubic-bezier(.2,.5,.5,.9); } 100% { transform: translate(64.3px,119.9px) scale(1,1) translate(-90px,-136.1px); } }
@keyframes a13_t { 0% { transform: translate(140px,83.8px) scale(0,0) translate(-165.7px,-100px); animation-timing-function: cubic-bezier(.2,.5,.5,.9); } 100% { transform: translate(140px,83.8px) scale(1,1) translate(-165.7px,-100px); } }
@keyframes a14_t { 0% { transform: translate(54.6px,152.2px) scale(0,0) translate(-80.3px,-168.4px); animation-timing-function: cubic-bezier(.2,.5,.5,.9); } 100% { transform: translate(54.6px,152.2px) scale(1,1) translate(-80.3px,-168.4px); } }
@keyframes a15_t { 0% { transform: translate(109.4px,135.5px) scale(0,0) translate(-135.1px,-151.8px); animation-timing-function: cubic-bezier(.2,.5,.5,.9); } 100% { transform: translate(109.4px,135.5px) scale(1,1) translate(-135.1px,-151.8px); } }
@keyframes a16_t { 0% { transform: translate(180.9px,138.9px) scale(0,0) translate(-206.6px,-155.1px); animation-timing-function: cubic-bezier(.2,.5,.5,.9); } 100% { transform: translate(180.9px,138.9px) scale(1,1) translate(-206.6px,-155.1px); } }
@keyframes a17_t { 0% { transform: translate(159.6px,124.4px) scale(0,0) translate(-185.3px,-140.6px); animation-timing-function: cubic-bezier(.2,.5,.5,.9); } 100% { transform: translate(159.6px,124.4px) scale(1,1) translate(-185.3px,-140.6px); } }
@keyframes a18_t { 0% { transform: translate(163.5px,57.7px) scale(0,0) translate(-189.2px,-73.9px); animation-timing-function: cubic-bezier(.2,.5,.5,.9); } 100% { transform: translate(163.5px,57.7px) scale(1,1) translate(-189.2px,-73.9px); } }
@keyframes a19_t { 0% { transform: translate(55.3px,65.4px) scale(0,0) translate(-81px,-81.6px); animation-timing-function: cubic-bezier(.2,.5,.5,.9); } 100% { transform: translate(55.3px,65.4px) scale(1,1) translate(-81px,-81.6px); } }
@keyframes a20_t { 0% { transform: translate(99.7px,60.4px) scale(0,0) translate(-125.4px,-76.6px); animation-timing-function: cubic-bezier(.2,.5,.5,.9); } 100% { transform: translate(99.7px,60.4px) scale(1,1) translate(-125.4px,-76.6px); } }
@keyframes a21_t { 0% { transform: translate(75.3px,31.5px) scale(0,0) translate(-101.1px,-47.8px); animation-timing-function: cubic-bezier(.2,.5,.5,.9); } 100% { transform: translate(75.3px,31.5px) scale(1,1) translate(-101.1px,-47.8px); } }
</style><g><path d="M400.1 167.4c0-4.1-1.4-7.2-4.3-9.4c-2.9-2.2-8-4.5-15.5-6.9c-7.5-2.4-13.4-4.8-17.8-7.1c-11.9-6.5-17.8-15.1-17.8-26c0-5.7 1.6-10.7 4.8-15.2c3.2-4.4 7.7-7.9 13.7-10.4c6-2.4 12.7-3.7 20.1-3.7c7.5 0 14.2 1.4 20 4.1c5.9 2.7 10.4 6.5 13.6 11.4c3.3 5 4.9 10.6 4.9 16.9h-21.6c0-4.8-1.5-8.5-4.5-11.2c-3-2.7-7.3-4-12.8-4c-5.2 0-9.3 1.1-12.3 3.3c-2.9 2.3-4.3 5.2-4.3 8.9c0 3.4 1.7 6.2 5.1 8.5c3.4 2.3 8.5 4.5 15.1 6.5c12.3 3.7 21.3 8.3 26.9 13.7c5.6 5.5 8.4 12.3 8.4 20.5c0 9-3.4 16.1-10.3 21.3c-6.8 5.2-16.1 7.7-27.7 7.7c-8 0-15.4-1.4-22-4.4c-6.6-2.9-11.7-7-15.1-12.1c-3.5-5.1-5.3-11.1-5.3-17.9h21.7c0 11.6 6.9 17.4 20.7 17.4c5.1 0 9.1-1.1 12-3.1c2.9-2.1 4.3-5 4.3-8.8Z" fill="#fff" fill-rule="nonzero" opacity="0" transform="translate(296.6,142.5) translate(-381.6,-142.5)" style="animation: 1s linear .7s both a0_t, 1s linear .7s both a0_o;"/><path d="M480.1 194.9c-0.9-1.9-1.6-4.2-2-7c-5.1 5.6-11.6 8.4-19.7 8.4c-7.6 0-13.9-2.2-18.9-6.6c-5.1-4.4-7.6-10-7.6-16.7c0-8.2 3.1-14.6 9.2-19c6.1-4.4 15-6.6 26.5-6.7h9.6v-4.4c0-3.6-0.9-6.5-2.8-8.7c-1.8-2.1-4.7-3.2-8.7-3.2c-3.5 0-6.3 .8-8.3 2.5c-2 1.7-2.9 4-2.9 6.9h-20.8c0-4.5 1.4-8.6 4.1-12.5c2.8-3.8 6.8-6.8 11.8-9c5.1-2.2 10.8-3.3 17.2-3.3c9.5 0 17.2 2.4 22.8 7.2c5.6 4.9 8.4 11.6 8.4 20.4v33.7c.1 7.4 1.1 13 3.1 16.8v1.2h-21Zm-17.2-14.5c3.1 0 5.9-0.7 8.5-2c2.6-1.4 4.5-3.2 5.8-5.5v-13.4h-7.8c-10.4 0-15.9 3.6-16.6 10.8l-0.1 1.2c0 2.6 .9 4.7 2.8 6.4c1.8 1.7 4.3 2.5 7.4 2.5Z" fill="#fff" fill-rule="nonzero" opacity="0" transform="translate(381.5,156) translate(-466.5,-156)" style="animation: 1s linear .9s both a1_t, 1s linear .9s both a1_o;"/><path d="M538.9 97.9v19.2h13.3v15.2h-13.3v38.9c0 2.8 .6 4.9 1.7 6.1c1.1 1.3 3.2 1.9 6.3 1.9c2.3 0 4.3-0.2 6.1-0.5v15.8c-4.1 1.2-8.3 1.8-12.6 1.8c-14.6 0-22-7.3-22.3-22.1v-41.9h-11.3v-15.2h11.3v-19.2h20.8Z" fill="#fff" fill-rule="nonzero" opacity="0" transform="translate(444.9,147.1) translate(-529.9,-147.1)" style="animation: 1s linear 1s both a2_t, 1s linear 1s both a2_o;"/><path d="M588.7 97.9v19.2h13.3v15.2h-13.3v38.9c0 2.8 .5 4.9 1.6 6.1c1.2 1.3 3.3 1.9 6.4 1.9c2.3 0 4.3-0.2 6.1-0.5v15.8c-4.1 1.2-8.3 1.8-12.6 1.8c-14.6 0-22-7.3-22.3-22.1v-41.9h-11.4v-15.2h11.4v-19.2h20.8Z" fill="#fff" fill-rule="nonzero" opacity="0" transform="translate(494.7,147.1) translate(-579.7,-147.1)" style="animation: 1s linear 1.2s both a3_t, 1s linear 1.2s both a3_o;"/><path d="M608.2 155.3c0-7.8 1.5-14.7 4.4-20.7c3-6 7.3-10.7 12.9-14c5.6-3.3 12.1-5 19.4-5c10.6 0 19.1 3.2 25.8 9.7c6.6 6.4 10.3 15.1 11.1 26.1l.1 5.4c0 11.9-3.3 21.5-10 28.7c-6.6 7.2-15.6 10.8-26.8 10.8c-11.2 0-20.2-3.6-26.9-10.8c-6.7-7.2-10-16.9-10-29.3v-0.9Zm20.8 1.5c0 7.3 1.4 13 4.2 16.9c2.7 3.9 6.7 5.9 11.9 5.9c5 0 9-2 11.8-5.8c2.8-3.9 4.2-10.1 4.2-18.5c0-7.3-1.4-12.9-4.2-16.9c-2.8-4-6.8-6-12-6c-5 0-9 2-11.7 6c-2.8 3.9-4.2 10.1-4.2 18.4Z" fill="#fff" fill-rule="nonzero" opacity="0" transform="translate(560.1,156) translate(-645.1,-156)" style="animation: 1s linear 1.4s both a4_t, 1s linear 1.4s both a4_o;"/><path d="M738.5 136.5c-2.9-0.3-5.4-0.5-7.5-0.5c-7.9 0-13 2.6-15.5 8v50.9h-20.8v-77.8h19.7l.5 9.2c4.2-7.1 10-10.7 17.4-10.7c2.3 0 4.4 .3 6.5 .9l-0.3 20Z" fill="#fff" fill-rule="nonzero" opacity="0" transform="translate(631.7,155.3) translate(-716.7,-155.3)" style="animation: 1s linear 1.6s both a5_t, 1s linear 1.6s both a5_o;"/><path d="M737.1 184.7c0-3.3 1.1-6 3.3-8.1c2.3-2 5.1-3.1 8.4-3.1c3.4 0 6.3 1.1 8.5 3.1c2.2 2.1 3.3 4.8 3.3 8.1c0 3.2-1.1 5.9-3.3 7.9c-2.2 2.1-5 3.1-8.5 3.1c-3.4 0-6.2-1-8.4-3.1c-2.2-2-3.3-4.7-3.3-7.9Z" fill="#fff" fill-rule="nonzero" opacity="0" transform="translate(663.9,184.6) translate(-748.9,-184.6)" style="animation: 1s linear 1.7s both a6_t, 1s linear 1.7s both a6_o;"/><path d="M839.3 173.3h-37.8l-7.2 21.6h-23l39-104.8h20l39.2 104.8h-22.9l-7.3-21.6Zm-32-17.5h26.2l-13.2-39.2l-13 39.2Z" fill="#fff" fill-rule="nonzero" opacity="0" transform="translate(735.4,142.5) translate(-820.4,-142.5)" style="animation: 1s linear 1.8s both a7_t, 1s linear 1.8s both a7_o;"/><path d="M921.7 136.5c-2.8-0.3-5.3-0.5-7.5-0.5c-7.8 0-13 2.6-15.4 8v50.9h-20.8v-77.8h19.6l.6 9.2c4.1-7.1 9.9-10.7 17.3-10.7c2.3 0 4.5 .3 6.5 .9l-0.3 20Z" fill="#fff" fill-rule="nonzero" opacity="0" transform="translate(815,155.3) translate(-900,-155.3)" style="animation: 1s linear 2s both a8_t, 1s linear 2s both a8_o;"/><path d="M960.2 97.9v19.2h13.3v15.2h-13.3v38.9c0 2.8 .5 4.9 1.6 6.1c1.1 1.3 3.3 1.9 6.4 1.9c2.3 0 4.3-0.2 6.1-0.5v15.8c-4.1 1.2-8.3 1.8-12.6 1.8c-14.6 0-22-7.3-22.3-22.1v-41.9h-11.4v-15.2h11.4v-19.2h20.8Z" fill="#fff" fill-rule="nonzero" opacity="0" transform="translate(866.2,147.1) translate(-951.2,-147.1)" style="animation: 1s linear 2.2s both a9_t, 1s linear 2.2s both a9_o;"/></g><g clip-path="url(#ClipPath-1)"><rect width="119" height="400" fill="url(#Gradient-0)" transform="translate(-100.8,115.6) rotate(15) translate(-59.5,-200)" style="animation: 10s linear infinite both a10_t;"/></g><g transform="translate(25.7,16.2)"><path d="M102.6 156.2c-3.6-0.5-7-0.7-10.3-0.1c-9.8 3.3-18.9 7.2-27.1 11.5c-8 5-9.8 11.7-4.8 20.4c-25.4-9.1-35.2-28.8-33-56.6c10.6 1.1 21.4 1.9 33 1.8c-3-9.1-6.4-18.1-10.3-27.2c-3.8-10.7-12.9-10.2-24.4-4.3v-33c-0.2-10 5.8-12.5 15.9-9.7l17 4.8c10.2 1.4 19.7-0.4 28.8-4.8c-10.4 13.3-22 17.9-35.2 12.6c-15.6-3.2-22.9 3.4-21.3 20.3l8.2-2.7c5.1-1.1 10 .4 14.6 3.2c8.6 10.2 15.1 20.9 18.9 32.2c2.2 9.5-1.7 14.5-12.2 14.9h-24.7c0 12.7 3.8 20.2 18 14.1c18.4-7 34.3-4.6 48.9 2.6Z" fill="#e9204f" transform="translate(76.9,106.7) scale(0,0) translate(-102.6,-123)" style="animation: .7s linear both a11_t;"/><path d="M133.1 114.9c1.2-0.6 25.1 14.7 31.2 26.7c12.1 23.7 12.2 34.8 12.2 34.8c-13.2-14.7-26.4-29.3-40.9-43c-1.2 .4-2.1 1.1-2.5 2.3c-1.6 10.9-3.8 21.8-6.6 32.7c-12.8-12.2-25-24.7-36.5-37.6l1.1-1.1c8.5 5.1 17.7 9.8 28 13.8c.2-8.9-0.8-17.6-1.8-26.2c2.6 .8 5.2 1.3 7.8 1.5c-4.4-6.4-9.4-12.8-15-19.1l1.2-3.9c12.1 1.8 22.8 0 32.2 4.7c11.7 5.9 20.7 16.4 29.8 30.3l-37.7-18.3l-2.5 2.4c0 0 0 0 0 0Z" fill="#e9204f" transform="translate(64.3,119.9) scale(0,0) translate(-90,-136.1)" style="animation: .7s linear .2s both a12_t;"/><path d="M165.7 103.2l2.2-3.2c0 0 18.9 6.1 28.2 9.2c14.3 4.9 24.8 17.1 24.8 17.1c-13.3-0.6-26.9-0.6-40.9 0v-2.7c4-1.2 7.9-2.7 11.1-4.8l-25.4-15.6Z" fill="#e9204f" transform="translate(140,83.8) scale(0,0) translate(-165.7,-100)" style="animation: .7s linear .3s both a13_t;"/><path d="M107.2 168.4h4.1c10.2 29.3 25.2 52.9 52.1 62.1c11.3 10 22.1 20.3 32.8 30.7v1.1c-7.8-1-19.6-7.5-32.8-15.9l8.8 37.4c-18.9-21.1-39.6-43.3-55.3-49c.3 12.6 12.2 28.2 29.3 45.2c-26.8-9.6-43.9-26-53.8-45.2c-10.6-20.4-17.4-39.4-6.5-66.4c5.4 21.9 13.3 36.3 25.4 38.5c-2.3-12.8-3.4-25.6-4.1-38.5Z" fill="#e9204f" transform="translate(54.6,152.2) scale(0,0) translate(-80.3,-168.4)" style="animation: .7s linear .4s both a14_t;"/><path d="M177.2 151.8c47.4 30.3 78.5 62.1 84.9 95.9l-32.1-28.4c3.1 17.3 6 34.6 6.2 51.8c-7.1-14.6-16.5-27.5-28-38.8h-2.5c.3 11.7 .4 23.5 0 35.4c-5.4-19.5-16.2-34-30.7-45.1l-20.9-14c-12.6-11.4-17.4-30.4-19-52.4c7.7 14.5 16.4 27 27.3 35.7l20.4 12.8l1.9-1.1l-7.5-21.5l26.2 21.5h2.3l-28.5-51.8Z" fill="#e9204f" transform="translate(109.4,135.5) scale(0,0) translate(-135.1,-151.8)" style="animation: .7s linear .5s both a15_t;"/><path d="M206.6 155.1l44.5 13.5l-4.5-6c26.5 3.7 43.8 19.1 53 44.9c-11.1-12.9-23.5-21.1-37.5-23.2c7.6 13.3 15 26.9 21.4 41.4c.5 5.9 .9 11.8-1.1 17.9c-15.8-30.1-43.9-59.4-75.8-88.5Z" fill="#e9204f" transform="translate(180.9,138.9) scale(0,0) translate(-206.6,-155.1)" style="animation: .7s linear .5s both a16_t;"/><path d="M222.9 118.6l19.9-0.9c21.2 8.3 42 16.9 62.1 26.2v3.5c-13.3-1.6-26.7-2.8-40-3.5l21.5 19.7c-34.1-8.2-67.8-15.6-101.1-22.4v-2.5c17.6-1.7 35.7-3.8 53-6.3l-15.4-13.8Z" fill="#e9204f" transform="translate(159.6,124.4) scale(0,0) translate(-185.3,-140.6)" style="animation: .7s linear .6s both a17_t;"/><path d="M189.2 74.1l3.8-0.2c11.2 7.9 39.1 12.3 60.3 13.2c29.7 1.4 46.4 37.9 46.4 37.9c-15.4-14.1-30.6-25.7-43.8-21.2l27.8 21.2l-1.7 2.9c-12.1-6.1-22.8-12-33.4-16.1c-28.5-10.8-45.7-23.6-59.4-37.7Z" fill="#e9204f" transform="translate(163.5,57.7) scale(0,0) translate(-189.2,-73.9)" style="animation: .7s linear .6s both a18_t;"/><path d="M102.4 56.7v2.1c3.5 .6 7 1.2 9 2.6c-8.6 4.2-19.7 7.3-30.4 10.6v2.3c5.6 .6 11.1 1.5 16.6 2.7c-4.6 3.6-9.7 6.8-15.1 10l1.7 3.1c15.6-0.6 31.2-0.7 46.8 0c-6.4-5.4-12.4-11-17.6-17c11.8-10.3 22.7-13.2 32.3-4.9l18.1 18.8c11.3 10 21.3 10.8 33.2 14.4c9.1 2.7 26 11.6 26 11.6l1.6-4.3c-1.6 1.9-40.4-22.7-52.3-35.6c-9.4-10.1-21.3-24.5-35.6-22.8c-11 1.4-23.1 3.1-34.3 6.4Z" fill="#e9204f" transform="translate(55.3,65.4) scale(0,0) translate(-81,-81.6)" style="animation: .7s linear .5s both a19_t;"/><path d="M125.4 77l33 21c0 0-5.3-12.4-10.3-16.6c-7.8-6.7-22.7-4.4-22.7-4.4Z" fill="#e9204f" transform="translate(99.7,60.4) scale(0,0) translate(-125.4,-76.6)" style="animation: .7s linear .4s both a20_t;"/><path d="M101.1 45.7c8.9-4.9 24.6-18.2 38.1-29.5l3.1 2.6l-7.8 11c31.2-7.3 54.9-1.3 74.3 12.7c6.3 4.6 26.7 12.2 26.7 12.2l-1.5 4.1c-15.4-4.8-31-9.3-46.7-13.1c-0.6 .7-0.7 1.4 0 2.3c19.9 8.4 40.4 16.5 61.4 24.3l-1.2 3.5c-13.3-3.1-26.5-6.2-39.8-6.8c3 2.9 6.8 5.5 11.3 8l-1.4 2.3c0 0-47.1-23.1-64.5-29.5c-15.8-5.9-33.8-6.7-50.7 1c-1.1-1.7-1.4-3.4-1.3-5.1Z" fill="#e9204f" transform="translate(75.3,31.5) scale(0,0) translate(-101.1,-47.8)" style="animation: .7s linear .3s both a21_t;"/></g></svg>