<svg xmlns="http://www.w3.org/2000/svg" width="325" height="300" viewBox="0 0 325 300" clip-rule="evenodd" fill-rule="evenodd" stroke-linejoin="round" stroke-miterlimit="2"><defs><linearGradient id="Gradient-0" x1="-0.5" y1="140" x2="120.5" y2="140" gradientUnits="userSpaceOnUse"><stop offset="0" stop-color="#fff" stop-opacity="0"/><stop offset=".53" stop-color="#fff"/><stop offset="1" stop-color="#fff" stop-opacity="0"/></linearGradient><clipPath id="ClipPath-1"><path d="M98.4 53.75l.97-0.29l-0.32-0.49c-1.64-2.52-2.15-5.04-1.96-7.55l.16-2.16l1.9-1.05c8.78-4.82 24.21-17.98 37.5-29.05l2.57-2.13l8.52 7.12c0 0-4.16 5.8-4.16 5.8c27.71-4.26 49.47 2.19 67.55 15.28c6.13 4.44 25.79 11.69 25.79 11.69l3.77 1.41l-4.19 11.09c4.51 1.72 9.05 3.43 13.62 5.13l3.73 1.39l-3.84 10.49l-3.43-0.78c-7.86-1.78-15.7-3.64-23.57-4.95l1.45 .82l-2.4 4.09c10.31 1.91 21.62 3.06 31.4 3.51c12.91 .58 23.62 7.19 31.75 15.02c11.8 11.35 18.11 25.16 18.11 25.16l-6.33 4.62c-7.46-6.81-14.83-13.05-21.96-17.02c-2.53-1.41-5.01-2.54-7.44-3.26l21.35 16.29l-3.94 6.74c7.26 3.12 14.45 6.31 21.55 9.57l2.33 1.07v10.55l-4.47-0.52c-9.47-1.11-18.94-2.03-28.41-2.73l24.48 22.47l-15-3.6c-8.58-2.05-17.13-4.06-25.66-6.03c21.07 6.59 35.39 21.72 43.5 44.68l-6.8 3.93c-8-9.32-16.7-16.06-26.33-19.59c6.05 10.85 11.85 21.95 16.98 33.64l.27 .61l.06 .66c.53 6.42 .89 12.84-1.24 19.49l-2.92 9.1l-4.43-8.46c-15.62-29.81-43.5-58.74-74.98-87.45l3.85-6.79l32.77 9.94l-2.97-3.93l9.58 1.35c.3 .04 .59 .09 .89 .13c-21.33-4.82-42.5-9.36-63.51-13.61l-3.21-0.65v-5.4l-23.29-11.27c4.19 3.94 7.85 8.11 9.8 11.93c2.58 5.04 4.63 9.53 6.26 13.5l5.21-4.88c48.65 31.1 80.16 63.92 86.7 98.63l2.16 11.49l-32.27-28.62c2.29 13.74 4.17 27.53 4.27 41.24l-7.6 1.78c-5.95-12.27-13.55-23.3-22.71-33.16c.18 9.29 .14 18.64-0.19 28.06l-7.85 .93c-0.49-1.75-1.02-3.46-1.59-5.12v3.22l-4.49-0.56c-6.54-0.8-15.77-5.2-26.23-11.4l6.6 27.98l-6.87 3.59c-15.84-17.61-32.76-36.15-46.91-44.55c.85 2.37 2.04 4.82 3.52 7.36c5 8.59 13.19 17.99 23.15 27.88l-4.17 6.61c-27.93-10.01-45.68-27.1-56.02-47.07c-11.11-21.46-18.11-41.39-6.6-69.74l1.36-3.36c-5.78 2.31-11.25 4.81-16.43 7.5c-2.85 1.8-4.73 3.81-5.32 6.26c-0.61 2.56 .19 5.41 2.06 8.68l5.41 9.43l-10.23-3.68c-27.27-9.79-38.02-30.78-35.63-60.64l.32-4.06l4.06 .4c8.77 .87 17.66 1.59 27.02 1.71c-2.51-7.19-5.28-14.39-8.39-21.59l-0.09-0.24c-0.8-2.24-1.83-3.84-3.24-4.78c-1.57-1.05-3.52-1.2-5.73-0.87c-2.95 .44-6.26 1.72-9.85 3.55l-5.81 2.95c0 0 0-39.42 0-39.42c-0.11-5.43 1.4-9.12 3.79-11.47c3.44-3.38 9.3-4.32 17.2-2.2c0 0 16.72 4.78 16.73 4.78c9.23 1.22 17.94-0.43 26.21-4.51l4.93 6.04c-1.32 1.7-2.67 3.27-4.03 4.71c4.16-1.27 8.29-2.54 12.22-3.91l-0.37-0.06Z" fill="red"/></clipPath></defs><style>
@keyframes a0_t { 0% { transform: translate(-100.82px,115.61px) rotate(15deg) translate(-59.5px,-200px); } 6.25% { transform: translate(-100.82px,115.61px) rotate(15deg) translate(-59.5px,-200px); } 25% { transform: translate(435.24px,115.61px) rotate(15deg) translate(-59.5px,-200px); } 100% { transform: translate(435.24px,115.61px) rotate(15deg) translate(-59.5px,-200px); } }
</style><g clip-path="url(#ClipPath-1)"><rect width="119" height="400" fill="url(#Gradient-0)" transform="translate(-100.82,115.61) rotate(15) translate(-59.5,-200)" style="animation: 8s linear infinite both a0_t;"/></g><path d="M139.21 16.24c-13.5 11.24-29.21 24.57-38.13 29.48c-0.13 1.69 .22 3.38 1.32 5.06c16.86-7.64 34.86-6.85 50.73-1c17.4 6.42 64.47 29.54 64.47 29.54l1.35-2.31c-4.42-2.49-8.21-5.15-11.22-8.03c13.31 .6 26.52 3.77 39.73 6.77l1.27-3.45c-21.05-7.82-41.57-15.9-61.41-24.32c-0.75-0.86-0.67-1.6 0-2.26c15.71 3.75 31.31 8.27 46.66 13.05l1.55-4.1c0 0-20.39-7.59-26.75-12.2c-19.36-14.01-43.12-19.99-74.33-12.67l7.88-10.96Zm-36.81 42.53v-2.04c11.22-3.35 23.27-5.06 34.35-6.38c13.18-1.58 24.34 10.6 33.36 20.44c.74 .81 1.46 1.59 2.17 2.36c11.94 12.87 50.74 37.44 52.37 35.54l-1.63 4.33c0 0-16.89-8.92-25.98-11.66c-11.9-3.58-21.98-4.4-33.2-14.38l-18.12-18.81c-9.57-8.26-20.5-5.41-32.33 4.98c5.24 5.97 11.21 11.58 17.65 16.96c-15.61-0.71-31.21-0.66-46.82 0l-1.71-3.13c5.37-3.14 10.51-6.4 15.09-9.94c-5.47-1.26-11.01-2.12-16.59-2.76v-2.3c10.68-3.29 21.82-6.38 30.41-10.61c-2.03-1.39-5.49-2.02-9.02-2.6Zm.21 97.44c-3.58-0.55-7.06-0.74-10.31-0.13c-9.83 3.36-18.86 7.21-27.13 11.51c-7.98 4.97-9.74 11.72-4.76 20.41c-25.39-9.12-35.22-28.76-33-56.56c10.63 1.06 21.43 1.89 33 1.73c-2.99-9.06-6.39-18.11-10.29-27.17c-3.83-10.7-12.87-10.19-24.4-4.33v-32.96c-0.2-10.06 5.78-12.47 15.93-9.75l16.96 4.84c10.15 1.4 19.73-0.36 28.81-4.84c-10.38 13.35-22.06 17.92-35.22 12.67c-15.58-3.2-22.88 3.35-21.33 20.27l8.2-2.66c5.18-1.13 10.02 .37 14.59 3.13c8.65 10.23 15.1 20.94 18.91 32.24c2.27 9.45-1.68 14.5-12.16 14.93h-24.71c-0.05 12.64 3.76 20.2 17.96 14.11c18.47-7.02 34.39-4.7 48.95 2.56Zm86.61-82.15l3.75-0.13c11.24 7.83 39.18 12.22 60.31 13.18c29.69 1.35 46.41 37.86 46.41 37.86c-15.42-14.08-30.54-25.68-43.8-21.22l27.81 21.22l-1.7 2.9c-12.11-6.05-22.79-12-33.39-16.04c-28.55-10.87-45.76-23.63-59.39-37.77Zm-63.77 2.98l32.94 20.95c0 0-5.31-12.4-10.26-16.62c-7.86-6.69-22.68-4.33-22.68-4.33Zm7.67 37.83c1.13-0.57 25.04 14.74 31.16 26.71c12.12 23.7 12.25 34.8 12.25 34.8c-13.18-14.66-26.39-29.31-40.97-42.97c-1.17 .38-2.01 1.14-2.47 2.33c-1.59 10.9-3.78 21.8-6.56 32.7c-12.85-12.22-25.06-24.75-36.5-37.65l1.03-1.06c8.55 5.12 17.74 9.81 28.03 13.74c.2-8.87-0.75-17.53-1.74-26.18c2.58 .85 5.16 1.32 7.74 1.48c-4.44-6.4-9.42-12.76-15.03-19.07l1.23-3.88c4.22 .62 8.26 .8 12.13 .98c7.27 .33 13.93 .64 20.09 3.73c11.69 5.87 20.7 16.38 29.83 30.26l-37.78-18.28Zm0 0c-0.01 .01-0.02 .02-0.03 .03Zm34.79-14.85l-2.22 3.23l25.44 15.59c-3.26 2.04-7.1 3.51-11.15 4.77v2.68c14.04-0.58 27.66-0.57 40.91 0c0 0-10.54-12.21-24.8-17.05c-9.33-3.17-28.18-9.22-28.18-9.22Zm74.9 17.64l-19.91 .98l15.39 13.8c-17.31 2.46-35.34 4.54-52.96 6.23v2.56c33.3 6.73 67 14.19 101.08 22.36l-21.48-19.71c13.32 .74 26.63 1.93 39.95 3.48v-3.48c-20.1-9.23-40.89-17.88-62.07-26.22Zm19.27 130.09c-6.39-33.88-37.44-65.65-84.92-96l28.51 51.85h-2.26l-26.25-21.54l7.58 21.54l-1.89 1.06l-20.42-12.76c-10.9-8.68-19.65-21.22-27.32-35.72c1.59 22.06 6.39 41.03 19.02 52.47l20.88 13.92c14.48 11.15 25.29 25.65 30.66 45.09c.42-11.89 .37-23.66 0-35.36h2.53c11.51 11.31 20.87 24.23 27.97 38.85c-0.13-17.24-3.12-34.6-6.16-51.84Zm-55.46-92.65l44.5 13.49l-4.52-6c26.52 3.76 43.85 19.12 52.95 44.87c-11.03-12.87-23.41-21.02-37.47-23.21c7.65 13.37 15.06 26.95 21.43 41.47c.5 5.9 .9 11.81-1.06 17.93c-15.8-30.17-43.96-59.49-75.83-88.55Zm-99.43 13.34h4.1c10.17 29.31 25.18 52.81 52.12 62.05c11.24 10.01 22.09 20.31 32.82 30.68v1.13c-7.84-0.96-19.66-7.49-32.82-15.9l8.81 37.36c-18.97-21.08-39.63-43.27-55.35-48.92c.29 12.56 12.24 28.17 29.31 45.13c-26.82-9.61-43.89-25.96-53.82-45.13c-10.58-20.45-17.4-39.41-6.44-66.4c5.37 21.87 13.29 36.27 25.37 38.48c-2.3-12.83-3.37-25.66-4.1-38.48Z" fill="#e9204f"/></svg>